<?xml version="1.0" encoding="UTF-8"?><svg id="Layer_1" xmlns="http://www.w3.org/2000/svg" viewBox="0 0 184.06 184.06"><defs><style>.cls-1{fill:#fe5225;stroke-width:0px;}</style></defs><path class="cls-1" d="M115.3,123.49l-7.24-9.36,70.12-54.46C165.1,24.81,131.47,0,92.03,0,41.2,0,0,41.2,0,92.03c0,9.04,1.33,17.76,3.75,26.01l65-50.48,7.24,9.36L8.06,129.67c14.39,32.05,46.56,54.38,83.97,54.38,50.83,0,92.03-41.2,92.03-92.03,0-6.94-.79-13.69-2.25-20.19l-66.5,51.65ZM49.09,134.6l-7.24-9.36,87.31-67.81,7.24,9.36-87.31,67.81Z"/></svg>