<?xml version="1.0" encoding="UTF-8"?><svg id="Layer_1" xmlns="http://www.w3.org/2000/svg" viewBox="0 0 1366 226"><defs><style>.cls-1{font-family:Anton-Regular, Anton;font-size:197px;letter-spacing:.02em;}.cls-1,.cls-2{fill:#fff;}.cls-2{stroke-width:0px;}</style></defs><text class="cls-1" transform="translate(952.92 195.08)"><tspan x="0" y="0">DECK</tspan></text><text class="cls-1" transform="translate(21.16 195.15)"><tspan x="0" y="0">CREATOR</tspan></text><path class="cls-2" d="M841.21,142.06l-7.24-9.36,70.12-54.46c-13.1-34.86-46.73-59.67-86.16-59.67-50.83,0-92.03,41.2-92.03,92.03,0,9.04,1.33,17.76,3.75,26.01l65-50.48,7.24,9.36-67.93,52.76c14.39,32.05,46.56,54.38,83.97,54.38,50.83,0,92.03-41.2,92.03-92.03,0-6.94-.79-13.69-2.25-20.19l-66.5,51.65ZM774.99,153.17l-7.24-9.36,87.31-67.81,7.24,9.36-87.31,67.81Z"/></svg>